<?xml version="1.0" encoding="utf-8"?>
<!-- Generator: Adobe Illustrator 16.0.0, SVG Export Plug-In . SVG Version: 6.00 Build 0)  -->
<!DOCTYPE svg PUBLIC "-//W3C//DTD SVG 1.1//EN" "http://www.w3.org/Graphics/SVG/1.1/DTD/svg11.dtd">
<svg xmlns="http://www.w3.org/2000/svg" xmlns:xlink="http://www.w3.org/1999/xlink" version="1.1" id="Layer_1" x="0px" y="0px" width="512" height="512" viewBox="0 0 512 512" enable-background="new 0 0 512 512" xml:space="preserve">
<g id="cook_book">
	<g>
		<rect x="46.816" y="460.34" fill="#F4F6F9" width="422.508" height="36.562"/>
	</g>
	<path fill="#E5E8EC" d="M458.668,479.996c0,5.906,4.766,10.672,10.656,10.672V469.34   C463.434,469.34,458.668,474.121,458.668,479.996z"/>
	<g>
		<path fill="#EC5564" d="M62.535,469.449h406.789c5.89,0,10.671-4.766,10.671-10.672V10.677c0-5.891-4.781-10.672-10.671-10.672    H74.676c-23.562,0-42.671,19.109-42.671,42.671v0.016v394.867v21.219v21.219c0,17.687,14.327,31.999,31.999,31.999h405.32l0,0    c5.89,0,10.671-4.781,10.671-10.656c0-5.906-4.781-10.671-10.671-10.671h-0.016H64.004c-5.875,0-10.672-4.781-10.672-10.672    C53.332,474.621,57.348,470.168,62.535,469.449z"/>
	</g>
	<path fill="#E5E8EC" d="M170.783,362.67V250.953l-6.562-2.734c-25.171-10.5-41.452-34.921-41.452-62.187   c0-37.14,30.218-67.358,67.358-67.358c23.249,0,23.624-16.531,36.062,3.156l24.827-12l14.172,2.344   c12.437-19.703,33.718,6.5,56.968,6.5c37.14,0,67.342,30.218,67.342,67.358c0,27.266-16.266,51.687-41.437,62.187l-6.562,2.734   V362.67H170.783z"/>
	<g>
		<path fill="#CBD0D8" d="M322.155,108.003c-7.359,0-14.469,1.031-21.219,2.938c-12.484-9.375-27.984-14.938-44.796-14.938    s-32.327,5.562-44.796,14.938c-6.75-1.906-13.859-2.938-21.218-2.938c-43.094,0-78.015,34.937-78.015,78.029    c0,32.453,19.812,60.265,47.999,72.03v115.279h192.043V258.062c28.202-11.766,48.015-39.578,48.015-72.03    C400.169,142.939,365.248,108.003,322.155,108.003z M343.952,238.375l-13.125,5.469v14.219v93.936h-0.016    c0-5.875-4.781-10.656-10.672-10.656s-10.672,4.781-10.672,10.656h-10.656c0-5.875-4.781-10.656-10.672-10.656    s-10.672,4.781-10.672,10.656h-10.655c0-5.875-4.781-10.656-10.672-10.656s-10.672,4.781-10.672,10.656h-10.655    c0-5.875-4.781-10.656-10.672-10.656s-10.672,4.781-10.672,10.656h-10.656c0-5.875-4.781-10.656-10.672-10.656    c-5.89,0-10.671,4.781-10.671,10.656h-0.016v-93.936v-14.219l-13.125-5.469c-21.188-8.843-34.89-29.39-34.89-52.343    c0-31.265,25.421-56.687,56.687-56.687c1.25,0,2.499,0.047,3.733,0.125c-7.515,11.344-12.015,24.859-12.358,39.421    c-0.109,0.578-0.172,1.172-0.172,1.781c0,5.891,4.781,10.671,10.671,10.671c5.891,0,10.672-4.781,10.672-10.671h0.141    c0-29.406,23.922-53.327,53.327-53.327c28.937,0,52.546,23.156,53.296,51.921c-0.062,0.469-0.109,0.922-0.109,1.406    c0,5.891,4.781,10.671,10.672,10.671s10.672-4.781,10.672-10.671h0.141c0-15.234-4.578-29.39-12.406-41.203    c1.25-0.078,2.484-0.125,3.75-0.125c31.249,0,56.686,25.422,56.686,56.687C378.841,208.985,365.139,229.532,343.952,238.375z"/>
		<path fill="#CBD0D8" d="M224.001,224c0-5.891-4.781-10.656-10.672-10.656S202.673,218.11,202.673,224v0.016v53.328l0,0    c0,5.89,4.766,10.655,10.656,10.655s10.672-4.766,10.672-10.655l0,0v-53.328V224z"/>
		<path fill="#CBD0D8" d="M266.672,224c0-5.891-4.781-10.656-10.672-10.656S245.328,218.11,245.328,224v0.016v53.328l0,0    c0,5.89,4.781,10.655,10.672,10.655s10.672-4.766,10.672-10.655l0,0v-53.328V224z"/>
		<path fill="#CBD0D8" d="M309.327,224c0-5.891-4.766-10.656-10.656-10.656S287.999,218.11,287.999,224v0.016v53.328l0,0    c0,5.89,4.781,10.655,10.672,10.655s10.656-4.766,10.656-10.655l0,0v-53.328V224z"/>
	</g>
</g>
</svg>
